<svg width="512" height="512" viewBox="0 0 512 512" fill="none" xmlns="http://www.w3.org/2000/svg">

  <!-- background -->
  <rect width="512" height="512" rx="120" fill="#050505"/>

  <!-- outer ring -->
  <circle cx="256" cy="256" r="150" stroke="#2A2A2A" stroke-width="2"/>

  <!-- middle ring -->
  <circle cx="256" cy="256" r="105" stroke="#242424" stroke-width="2"/>

  <!-- inner ring -->
  <circle cx="256" cy="256" r="60" stroke="#1E1E1E" stroke-width="2"/>

  <!-- outer dots -->
  <circle cx="256" cy="106" r="6" fill="#8a8a8a"/>
  <circle cx="362" cy="150" r="6" fill="#8a8a8a"/>
  <circle cx="406" cy="256" r="6" fill="#8a8a8a"/>
  <circle cx="362" cy="362" r="6" fill="#8a8a8a"/>
  <circle cx="256" cy="406" r="6" fill="#8a8a8a"/>
  <circle cx="150" cy="362" r="6" fill="#8a8a8a"/>
  <circle cx="106" cy="256" r="6" fill="#8a8a8a"/>
  <circle cx="150" cy="150" r="6" fill="#8a8a8a"/>

  <!-- middle dots -->
  <circle cx="256" cy="151" r="5" fill="#888"/>
  <circle cx="330" cy="182" r="5" fill="#888"/>
  <circle cx="361" cy="256" r="5" fill="#888"/>
  <circle cx="330" cy="330" r="5" fill="#888"/>
  <circle cx="256" cy="361" r="5" fill="#888"/>
  <circle cx="182" cy="330" r="5" fill="#888"/>
  <circle cx="151" cy="256" r="5" fill="#888"/>
  <circle cx="182" cy="182" r="5" fill="#888"/>

  <!-- inner dots -->
  <circle cx="256" cy="196" r="4" fill="#AAA"/>
  <circle cx="295" cy="217" r="4" fill="#AAA"/>
  <circle cx="316" cy="256" r="4" fill="#AAA"/>
  <circle cx="295" cy="295" r="4" fill="#AAA"/>
  <circle cx="256" cy="316" r="4" fill="#AAA"/>
  <circle cx="217" cy="295" r="4" fill="#AAA"/>
  <circle cx="196" cy="256" r="4" fill="#AAA"/>
  <circle cx="217" cy="217" r="4" fill="#AAA"/>

  <!-- center -->
  <circle cx="256" cy="256" r="18" fill="#FFFFFF"/>

</svg>