<?xml version="1.0" encoding="UTF-8"?>
<svg xmlns="http://www.w3.org/2000/svg" viewBox="0 0 800 800" width="800" height="800">

  <defs>
    <circle id="dot" r="7" fill="#f8f8f8" stroke="#bfbfbf" stroke-width="1.4"/>
  </defs>

  <g transform="translate(400 400)">

    <!-- center -->
    <circle r="24" fill="#f5f5f5" stroke="#bdbdbd" stroke-width="2"/>

    <!-- radial structure -->

    <!-- ring 1 -->
    <g>
      <use href="#dot" transform="rotate(0) translate(0 -70) scale(1.25)"/>
      <use href="#dot" transform="rotate(45) translate(0 -70) scale(1.25)"/>
      <use href="#dot" transform="rotate(90) translate(0 -70) scale(1.25)"/>
      <use href="#dot" transform="rotate(135) translate(0 -70) scale(1.25)"/>
      <use href="#dot" transform="rotate(180) translate(0 -70) scale(1.25)"/>
      <use href="#dot" transform="rotate(225) translate(0 -70) scale(1.25)"/>
      <use href="#dot" transform="rotate(270) translate(0 -70) scale(1.25)"/>
      <use href="#dot" transform="rotate(315) translate(0 -70) scale(1.25)"/>
    </g>

    <!-- ring 2 -->
    <g>
      <use href="#dot" transform="rotate(0) translate(0 -120) scale(1.15)"/>
      <use href="#dot" transform="rotate(30) translate(0 -120) scale(1.15)"/>
      <use href="#dot" transform="rotate(60) translate(0 -120) scale(1.15)"/>
      <use href="#dot" transform="rotate(90) translate(0 -120) scale(1.15)"/>
      <use href="#dot" transform="rotate(120) translate(0 -120) scale(1.15)"/>
      <use href="#dot" transform="rotate(150) translate(0 -120) scale(1.15)"/>
      <use href="#dot" transform="rotate(180) translate(0 -120) scale(1.15)"/>
      <use href="#dot" transform="rotate(210) translate(0 -120) scale(1.15)"/>
      <use href="#dot" transform="rotate(240) translate(0 -120) scale(1.15)"/>
      <use href="#dot" transform="rotate(270) translate(0 -120) scale(1.15)"/>
      <use href="#dot" transform="rotate(300) translate(0 -120) scale(1.15)"/>
      <use href="#dot" transform="rotate(330) translate(0 -120) scale(1.15)"/>
    </g>

    <!-- ring 3 -->
    <g>
      <use href="#dot" transform="rotate(0) translate(0 -170)"/>
      <use href="#dot" transform="rotate(20) translate(0 -170)"/>
      <use href="#dot" transform="rotate(40) translate(0 -170)"/>
      <use href="#dot" transform="rotate(60) translate(0 -170)"/>
      <use href="#dot" transform="rotate(80) translate(0 -170)"/>
      <use href="#dot" transform="rotate(100) translate(0 -170)"/>
      <use href="#dot" transform="rotate(120) translate(0 -170)"/>
      <use href="#dot" transform="rotate(140) translate(0 -170)"/>
      <use href="#dot" transform="rotate(160) translate(0 -170)"/>
      <use href="#dot" transform="rotate(180) translate(0 -170)"/>
      <use href="#dot" transform="rotate(200) translate(0 -170)"/>
      <use href="#dot" transform="rotate(220) translate(0 -170)"/>
      <use href="#dot" transform="rotate(240) translate(0 -170)"/>
      <use href="#dot" transform="rotate(260) translate(0 -170)"/>
      <use href="#dot" transform="rotate(280) translate(0 -170)"/>
      <use href="#dot" transform="rotate(300) translate(0 -170)"/>
      <use href="#dot" transform="rotate(320) translate(0 -170)"/>
      <use href="#dot" transform="rotate(340) translate(0 -170)"/>
    </g>

    <!-- outer ring -->
    <g opacity="0.95">
      <use href="#dot" transform="rotate(0) translate(0 -225) scale(.9)"/>
      <use href="#dot" transform="rotate(15) translate(0 -225) scale(.9)"/>
      <use href="#dot" transform="rotate(30) translate(0 -225) scale(.9)"/>
      <use href="#dot" transform="rotate(45) translate(0 -225) scale(.9)"/>
      <use href="#dot" transform="rotate(60) translate(0 -225) scale(.9)"/>
      <use href="#dot" transform="rotate(75) translate(0 -225) scale(.9)"/>
      <use href="#dot" transform="rotate(90) translate(0 -225) scale(.9)"/>
      <use href="#dot" transform="rotate(105) translate(0 -225) scale(.9)"/>
      <use href="#dot" transform="rotate(120) translate(0 -225) scale(.9)"/>
      <use href="#dot" transform="rotate(135) translate(0 -225) scale(.9)"/>
      <use href="#dot" transform="rotate(150) translate(0 -225) scale(.9)"/>
      <use href="#dot" transform="rotate(165) translate(0 -225) scale(.9)"/>
      <use href="#dot" transform="rotate(180) translate(0 -225) scale(.9)"/>
      <use href="#dot" transform="rotate(195) translate(0 -225) scale(.9)"/>
      <use href="#dot" transform="rotate(210) translate(0 -225) scale(.9)"/>
      <use href="#dot" transform="rotate(225) translate(0 -225) scale(.9)"/>
      <use href="#dot" transform="rotate(240) translate(0 -225) scale(.9)"/>
      <use href="#dot" transform="rotate(255) translate(0 -225) scale(.9)"/>
      <use href="#dot" transform="rotate(270) translate(0 -225) scale(.9)"/>
      <use href="#dot" transform="rotate(285) translate(0 -225) scale(.9)"/>
      <use href="#dot" transform="rotate(300) translate(0 -225) scale(.9)"/>
      <use href="#dot" transform="rotate(315) translate(0 -225) scale(.9)"/>
      <use href="#dot" transform="rotate(330) translate(0 -225) scale(.9)"/>
      <use href="#dot" transform="rotate(345) translate(0 -225) scale(.9)"/>
    </g>

  </g>
</svg>